<?xml version="1.0" encoding="UTF-8"?> <svg xmlns="http://www.w3.org/2000/svg" width="74" height="24" viewBox="0 0 74 24" fill="none"><g clip-path="url(#clip0_4051_354)"><path d="M10.4781 10.1905L13.6359 12.4063L12.8642 12.9491L12.7312 13.0561L11.8334 13.691L11.8179 23.8881L19.677 18.3413L21.0651 17.4234V7.40727L10.4712 0L10.4798 10.1905H10.4781ZM19.6787 8.07677V16.6947L13.2112 21.2595L13.2215 14.3572L18.4598 10.6594V9.01275L14.8048 11.5855L14.6546 11.4802L11.8645 9.52433L11.8593 2.61385L19.6787 8.07841V8.07677Z" fill="#160F41"></path><path d="M9.20064 10.342V0.246826L1.40194 5.75745L0 6.66382L0.0138122 8.42064L0 16.4645L10.6803 23.9984L10.6837 13.9543L7.33772 11.6152L9.20064 10.3403V10.342ZM9.2956 14.6254V21.3747L1.40539 15.8098H1.38985L1.40021 9.17404L1.40366 7.40406L7.81424 2.87383V9.66424L7.03558 10.1972L2.6105 13.1647V14.7817L6.13779 12.4146L9.29905 14.6254H9.2956Z" fill="#160F41"></path><path d="M27.1997 23.3304H26.0758V21.7956H27.1721V21.2874H26.0758C25.7805 21.2874 25.5405 21.516 25.5405 21.7973V23.332C25.5405 23.6133 25.7805 23.842 26.0758 23.842H27.1997C27.495 23.842 27.7349 23.6133 27.7349 23.332V22.5638H27.2014V23.332L27.1997 23.3304Z" fill="#E11E42"></path><path d="M49.0493 22.212H47.9254V21.7942H49.2064V21.2859H47.9254C47.6301 21.2859 47.3901 21.5145 47.3901 21.7958V22.212C47.3901 22.4933 47.6301 22.7219 47.9254 22.7219H49.0493V23.3306H47.4109V23.8405H49.0493C49.3446 23.8405 49.5845 23.6119 49.5845 23.3306V22.7219C49.5845 22.4407 49.3446 22.212 49.0493 22.212Z" fill="#E11E42"></path><path d="M33.27 21.2859H32.1461C31.8508 21.2859 31.6108 21.5145 31.6108 21.7958V23.3306C31.6108 23.6119 31.8508 23.8405 32.1461 23.8405H33.27C33.5653 23.8405 33.8053 23.6119 33.8053 23.3306V21.7958C33.8053 21.5145 33.5653 21.2859 33.27 21.2859ZM33.27 23.3306H32.1461V21.7958H33.27V23.3306Z" fill="#E11E42"></path><path d="M36.8269 21.7941C36.8269 21.5128 36.5869 21.2842 36.2917 21.2842H34.9536V23.8372H36.5351C36.8303 23.8372 37.0703 23.6085 37.0703 23.3272V22.3057H36.8269V21.7925V21.7941ZM35.4888 21.7941H36.2934V22.3073H35.4888V21.7941ZM36.5368 23.3289H35.4888V22.8156H36.5368V23.3289Z" fill="#E11E42"></path><path d="M29.4185 21.2859H28.8833V23.8389H30.4631V23.3306H29.4185V21.2859Z" fill="#E11E42"></path><path d="M42.3604 21.2727H41.8252V23.8388H43.4067V23.3306H42.3604V21.2727Z" fill="#E11E42"></path><path d="M39.0887 21.2859L38.0269 23.8389H38.6018L38.8763 23.1792H40.0503L40.3231 23.8389H40.8981L39.838 21.2859H39.0887ZM39.0887 22.6709L39.453 21.7942H39.4754L39.8397 22.6709H39.0887Z" fill="#E11E42"></path><path d="M65.3475 21.2793L64.2856 23.8323H64.8606L65.1351 23.1726H66.285L66.5578 23.8323H67.1327L66.0726 21.2793H65.3457H65.3475ZM65.3475 22.6644L65.7118 21.7876L66.0761 22.6644H65.3492H65.3475Z" fill="#E11E42"></path><path d="M54.0728 23.8388H54.608V22.865H55.5714V22.3551H54.608V21.781H55.8891V21.2727H54.0728V23.8388Z" fill="#E11E42"></path><path d="M57.0391 21.781H57.7987V23.8257H58.3322V21.781H59.0833V21.2727H57.0391V21.781Z" fill="#E11E42"></path><path d="M69.6752 21.2809H68.1265V23.8388H68.6617V22.9242H69.0087L69.5629 23.8388H70.2104L69.6354 22.9242H69.6752C69.9704 22.9242 70.2087 22.6955 70.2087 22.4143V21.7875C70.2087 21.5062 69.9687 21.2776 69.6752 21.2776V21.2809ZM69.6752 22.4159H68.6617V21.7892H69.6752V22.4159Z" fill="#E11E42"></path><path d="M71.3608 23.8389H73.4119V23.3306H71.8943V22.8256H73.0753V22.3173H71.8943V21.7942H73.4119V21.2859H71.3608V23.8389Z" fill="#E11E42"></path><path d="M52.3897 21.2859H51.2657C50.9705 21.2859 50.7305 21.5145 50.7305 21.7958V23.3306C50.7305 23.6119 50.9705 23.8405 51.2657 23.8405H52.3897C52.6849 23.8405 52.9249 23.6119 52.9249 23.3306V21.7958C52.9249 21.5145 52.6849 21.2859 52.3897 21.2859ZM52.3897 23.3306H51.2657V21.7958H52.3897V23.3306Z" fill="#E11E42"></path><path d="M62.5037 23.0147L62.1187 21.2727H61.2468L60.8652 22.9835L60.4854 21.2727H59.9312L60.5372 23.8388H61.2485L61.6888 21.8024L62.1394 23.8388H62.8662L63.4377 21.2727H62.8921L62.5037 23.0147Z" fill="#E11E42"></path><path d="M70.1403 4.82471L66.4956 7.11614L68.3672 9.54739L70.1403 8.44034V19.2444H73.4121V4.82471H70.1403Z" fill="#160F41"></path><path d="M36.2792 4.823H25.542V19.2477H36.2792C39.4958 19.2477 42.1028 16.7638 42.1028 13.6992V10.3731C42.1028 7.30854 39.4958 4.82464 36.2792 4.82464V4.823ZM39.0071 13.6992C39.0071 15.132 37.783 16.2983 36.2792 16.2983H28.6394V7.77571H36.2792C37.783 7.77571 39.0071 8.94198 39.0071 10.3747V13.7009V13.6992Z" fill="#160F41"></path><path d="M58.8072 4.8855H46.3071V19.4829H58.8072C61.0499 19.4829 62.8679 17.7507 62.8679 15.6139V14.6335C62.8679 13.7288 62.5399 12.8998 61.9943 12.2401C62.5399 11.5821 62.8679 10.7514 62.8679 9.8467V8.75445C62.8679 6.61764 61.0499 4.8855 58.8072 4.8855ZM59.9173 15.4083C59.9173 16.0285 59.389 16.5318 58.7381 16.5318H49.4028V13.7173H57.3051L58.7381 13.7157C59.389 13.7157 59.9173 14.219 59.9173 14.8392V15.41V15.4083ZM59.9173 9.64108C59.9173 10.2612 59.389 10.7646 58.7381 10.7646H49.4028V7.84808H49.4149V7.83656H58.7381C59.389 7.83656 59.9173 8.33992 59.9173 8.96007V9.64273V9.64108Z" fill="#160F41"></path></g><defs><clipPath id="clip0_4051_354"><rect width="73.4118" height="24" fill="white"></rect></clipPath></defs></svg> 