<?xml version="1.0" encoding="utf-8"?>
<!-- Generator: Adobe Illustrator 19.2.1, SVG Export Plug-In . SVG Version: 6.00 Build 0)  -->
<svg version="1.1" id="layer" xmlns="http://www.w3.org/2000/svg" xmlns:xlink="http://www.w3.org/1999/xlink" x="0px" y="0px"
	 viewBox="0 0 652 652" style="enable-background:new 0 0 652 652;" xml:space="preserve">
<style type="text/css">
	.st0{fill:#003DA5;}
	.st1{fill:#7C878E;}
	.st2{fill:#2F4995;}
</style>
<polygon class="st0" points="49.3,232.5 95.2,232.5 71.3,391.4 25.5,391.4 "/>
<circle class="st0" cx="78.5" cy="190.9" r="28"/>
<path class="st0" d="M262.3,391.4h47.1L250.3,177h-41.6L85.4,391.4h47.4l32.5-56.6h81.3L262.3,391.4z M188.8,294l31.5-54.8
	l15.1,54.8L188.8,294z"/>
<path class="st1" d="M583.3,162.9c23.2,0,42,18.8,42,42.1c0,2.7-0.3,5.4-0.8,8l-19,127.8c0,0.4,0,0.9,0,1.3c0,3.9,3.2,7.1,7.1,7.1
	h6.9v28.1h-19.7c-15.4,0.1-28-12.4-28.1-27.8c0-0.1,0-0.1,0-0.2v-74.5h-35.9c-1.6,0-3.2-0.1-4.8-0.3c-19.7-2.2-35.3-17.6-37.9-37.2
	c-0.6-4.5-0.4-9,0.4-13.4l9.2-61H583.3z"/>
<path class="st1" d="M486.2,177h-59.7c-42.3,0-77.1,32.7-82.1,74.3l-21,140h36.1l15.6-56.6h117.1v56.7h34.5l15.6-102.6h-6.6
	c-2.1,0-4.3-0.1-6.4-0.3c-26.2-2.9-46.9-23.3-50.4-49.4c-0.7-5.3-0.6-10.6,0.2-15.9L486.2,177"/>
<polygon class="st1" points="374,391.4 409.9,391.4 427.7,348.8 385.8,348.8 "/>
<path class="st0" d="M25.3,421.6h41.2v10.8H37.2v11.5h25.8v10.8H37.2v21H25.3V421.6z"/>
<path class="st0" d="M72.8,434.3h11.8v41.5H72.8V434.3z"/>
<path class="st0" d="M94,434.3h11.8v5.9c2.7-4.1,7.2-6.6,12.1-6.7c8.9,0,14.1,5.9,14.1,15.4v26.9h-11.7v-23.1c0-5.6-2.6-8.4-7.1-8.4
	s-7.4,2.9-7.4,8.4v23.1H94V434.3z"/>
<path class="st0" d="M137.8,455.1v-0.2c0-13.8,9.1-21.4,18.9-21.4c5.1-0.1,9.9,2.2,13,6.2v-5.4h11.7v41.5h-11.8v-6
	c-2.9,4.3-7.8,6.9-13,6.7C147,476.5,137.8,468.9,137.8,455.1z M169.8,455.1v-0.2c0-6.9-4.6-11.4-10.1-11.4s-10.1,4.5-10.1,11.4v0.2
	c0,6.9,4.6,11.4,10.1,11.4S169.8,461.9,169.8,455.1z"/>
<path class="st0" d="M190,434.3h11.8v5.9c2.7-4.1,7.2-6.6,12.2-6.7c8.9,0,14.1,5.9,14.1,15.4v26.9h-11.8v-23.1
	c0-5.6-2.6-8.4-7.1-8.4s-7.3,2.9-7.3,8.4v23.1H190V434.3z"/>
<path class="st0" d="M234.6,455.2v-0.2c-0.2-11.8,9.2-21.4,21-21.6c0.3,0,0.5,0,0.8,0c6.3-0.4,12.4,2.2,16.5,7l-7.2,7.8
	c-2.3-2.9-5.8-4.5-9.4-4.6c-5.8,0.3-10.4,5.2-10.1,11.1c0,0.1,0,0.1,0,0.2v0.2c-0.5,5.8,3.9,11,9.7,11.4c0.2,0,0.4,0,0.7,0
	c3.7-0.1,7.2-1.7,9.7-4.5l6.9,7c-4.1,5-10.4,7.8-16.9,7.6c-11.7,0.2-21.4-9.1-21.6-20.8C234.6,455.7,234.6,455.5,234.6,455.2z"/>
<path class="st0" d="M279.7,434.3h11.8v41.5h-11.8V434.3z"/>
<path class="st0" d="M298.1,455.1v-0.2c0-13.8,9.1-21.4,18.9-21.4c5.1-0.1,9.9,2.2,13,6.2v-5.4h11.8v41.5H330v-6
	c-2.9,4.3-7.8,6.9-13,6.7C307.3,476.5,298.1,468.9,298.1,455.1z M330.1,455.1v-0.2c0-6.9-4.6-11.4-10.1-11.4
	c-5.5,0-10.1,4.5-10.1,11.4v0.2c0,6.9,4.6,11.4,10.1,11.4C325.5,466.5,330.1,461.9,330.1,455.1z"/>
<path class="st0" d="M350.9,419.2h11.8v56.5h-11.8V419.2z"/>
<path class="st0" d="M392.5,448.8v-0.2c-0.1-15.3,12.2-27.9,27.6-28c0.2,0,0.5,0,0.7,0c7.8-0.4,15.4,2.2,21.3,7.4l-7.5,9.1
	c-3.8-3.6-8.9-5.6-14.2-5.5c-9,0.4-15.9,7.9-15.6,16.9v0.2c-0.5,9,6.3,16.6,15.3,17.1c0.4,0,0.7,0,1.1,0c4,0.1,7.9-1,11.2-3.3v-7.8
	h-12v-10.4h23.4v23.4c-6.4,5.6-14.6,8.6-23.1,8.6C404.1,476.6,392.5,464.7,392.5,448.8z"/>
<path class="st0" d="M452.7,434.3h11.8v8.4c2.4-5.7,6.3-9.4,13.2-9.1v12.3H477c-7.8,0-12.6,4.7-12.6,14.6v15.3h-11.8L452.7,434.3z"
	/>
<path class="st0" d="M480.2,455.2v-0.2c0.4-12.4,10.7-22.1,23.1-21.8c11.8,0.4,21.3,9.8,21.8,21.6v0.2
	c-0.4,12.4-10.7,22.1-23.1,21.8C490.2,476.5,480.7,467,480.2,455.2z M513.5,455.2v-0.2c0.2-6.1-4.5-11.2-10.6-11.4
	c-0.1,0-0.2,0-0.3,0c-5.9-0.1-10.7,4.6-10.8,10.5c0,0.3,0,0.6,0,0.8v0.2c-0.2,6.1,4.5,11.2,10.6,11.4c0.1,0,0.2,0,0.3,0
	c5.9,0.1,10.7-4.6,10.8-10.5C513.5,455.8,513.5,455.5,513.5,455.2z"/>
<path class="st0" d="M531.7,461.1v-26.9h11.8v23.1c0,5.6,2.6,8.4,7.1,8.4c4.5,0,7.4-2.9,7.4-8.4v-23.1h11.8v41.5H558v-5.8
	c-2.7,4.1-7.2,6.6-12.2,6.7C536.9,476.5,531.7,470.6,531.7,461.1z"/>
<path class="st0" d="M578.6,434.3h11.8v6c2.9-4.3,7.8-6.9,13-6.7c9.7,0,18.9,7.6,18.9,21.4v0.2c0,13.8-9.1,21.4-18.9,21.4
	c-5.1,0.1-9.9-2.2-13-6.2v17.8h-11.8V434.3z M610.4,455.1v-0.2c0-6.9-4.6-11.4-10.1-11.4c-5.5,0-10.1,4.6-10.1,11.4v0.2
	c0,6.9,4.6,11.4,10.1,11.4C605.8,466.5,610.4,462.1,610.4,455.1z"/>
<path class="st2" d="M285.5,418c3.7,0,6.7,3,6.6,6.7c0,3.7-3,6.7-6.7,6.6c-3.7,0-6.6-3-6.6-6.6c0-3.7,2.9-6.7,6.6-6.7
	C285.4,418,285.5,418,285.5,418z"/>
<path class="st2" d="M78.7,418c3.7,0,6.7,3,6.6,6.7s-3,6.7-6.7,6.6c-3.7,0-6.6-3-6.6-6.6c0-3.7,2.9-6.7,6.6-6.7
	C78.6,418,78.7,418,78.7,418z"/>
</svg>
