<svg width="122" height="25" viewBox="0 0 122 25" fill="none" xmlns="http://www.w3.org/2000/svg">
<g clip-path="url(#clip0_3_1747)">
<path d="M0 9.63818H5.41658C7.03091 9.63818 8.26718 10.0382 9.12758 10.8372C9.98797 11.6362 10.4182 12.7751 10.4182 14.2539C10.4182 15.7328 9.98797 16.8804 9.12758 17.6805C8.26718 18.4795 7.02982 18.8795 5.41658 18.8795H3.26885V23.7893H0V9.63818ZM3.26885 12.2822V16.2345H5.06786C5.70229 16.2345 6.19224 16.0629 6.5377 15.7186C6.88316 15.3743 7.05589 14.8857 7.05589 14.2539C7.05589 13.6222 6.88316 13.1358 6.5377 12.7948C6.19224 12.4538 5.70229 12.2833 5.06786 12.2833H3.26885V12.2822Z" fill="#404041"/>
<path d="M20.7907 17.7318V23.7881H17.7294V22.2153C17.3209 22.8602 16.8625 23.3291 16.354 23.6231C15.8456 23.9171 15.2264 24.0636 14.4985 24.0636C13.5121 24.0636 12.7137 23.7433 12.101 23.1017C11.4882 22.4601 11.183 21.6284 11.183 20.6042C11.183 19.3593 11.5665 18.4466 12.3323 17.8651C13.0982 17.2837 14.3008 16.9929 15.9401 16.9929H17.7294V16.7273C17.7294 16.1907 17.5393 15.7972 17.159 15.5469C16.7788 15.2977 16.19 15.1731 15.3926 15.1731C14.7397 15.1731 14.1335 15.2463 13.5751 15.3906C13.0157 15.5359 12.4953 15.7545 12.0119 16.0442V13.4571C12.6648 13.28 13.3198 13.1455 13.976 13.0537C14.6322 12.9619 15.2872 12.916 15.9401 12.916C17.6544 12.916 18.8918 13.2942 19.6511 14.0484C20.4105 14.8036 20.7907 16.0311 20.7907 17.7307V17.7318ZM16.1563 19.0117C15.5219 19.0117 15.045 19.1319 14.7245 19.3724C14.404 19.6129 14.2443 19.9659 14.2443 20.4337C14.2443 20.8633 14.3736 21.1999 14.6311 21.4436C14.8885 21.6874 15.246 21.8087 15.7044 21.8087C16.2758 21.8087 16.756 21.5792 17.146 21.1212C17.5349 20.6632 17.7305 20.0894 17.7305 19.4008V19.0128H16.1574L16.1563 19.0117Z" fill="#404041"/>
<path d="M30.6114 13.5039V16.0823C29.9639 15.7796 29.3382 15.5511 28.732 15.4003C28.1258 15.2484 27.5554 15.173 27.022 15.173C26.4441 15.173 26.0161 15.2538 25.7358 15.4145C25.4566 15.5752 25.3165 15.8233 25.3165 16.1588C25.3165 16.431 25.4218 16.6387 25.6326 16.784C25.8433 16.9294 26.2247 17.0365 26.7776 17.1065L27.3045 17.1917C28.8623 17.4125 29.9096 17.7765 30.4462 18.2815C30.9829 18.7864 31.2512 19.58 31.2512 20.6609C31.2512 21.7419 30.8775 22.6415 30.1301 23.2098C29.3827 23.7782 28.2681 24.0624 26.7863 24.0624C26.1584 24.0624 25.5098 24.0077 24.8406 23.8962C24.1714 23.7858 23.4859 23.6208 22.782 23.3989V20.8205C23.3849 21.1495 24.0052 21.3954 24.6418 21.5594C25.2795 21.7233 25.9248 21.8064 26.5777 21.8064C27.1676 21.8064 27.6141 21.7146 27.915 21.531C28.2159 21.3473 28.367 21.0763 28.367 20.7156C28.367 20.4128 28.2637 20.1866 28.0563 20.0379C27.8488 19.8893 27.4381 19.7745 26.8221 19.6925L26.2855 19.6171C24.9351 19.428 23.9889 19.0772 23.4457 18.5656C22.9026 18.0541 22.631 17.277 22.631 16.2343C22.631 15.1096 22.9764 14.2756 23.6674 13.7324C24.3583 13.1892 25.4164 12.917 26.8417 12.917C27.4012 12.917 27.9878 12.964 28.6027 13.0591C29.2176 13.1542 29.8868 13.3028 30.6092 13.5039H30.6114Z" fill="#404041"/>
<path d="M40.8025 13.5041V16.2716C40.394 15.9557 39.9812 15.7218 39.564 15.5698C39.1469 15.4179 38.7145 15.3425 38.2691 15.3425C37.4217 15.3425 36.7623 15.619 36.2908 16.1721C35.8194 16.7252 35.5847 17.4979 35.5847 18.4893C35.5847 19.4806 35.8205 20.2534 36.2908 20.8064C36.7623 21.3595 37.4207 21.636 38.2691 21.636C38.746 21.636 39.1979 21.5573 39.626 21.3988C40.0529 21.2404 40.4451 21.0075 40.8036 20.6971V23.4745C40.3321 23.6701 39.8519 23.8166 39.362 23.9149C38.872 24.0133 38.3821 24.0625 37.8921 24.0625C36.1779 24.0625 34.8373 23.5717 33.8694 22.5891C32.9025 21.6065 32.4191 20.2403 32.4191 18.4904C32.4191 16.7405 32.9025 15.3742 33.8694 14.3916C34.8362 13.409 36.1768 12.9182 37.8921 12.9182C38.3886 12.9182 38.8775 12.9674 39.362 13.0647C39.8454 13.163 40.3256 13.3095 40.8036 13.5052L40.8025 13.5041Z" fill="#404041"/>
<path d="M52.5124 17.3239V23.788H49.4608V18.8596C49.4608 17.9305 49.4423 17.2922 49.4043 16.9447C49.3663 16.5971 49.3033 16.3413 49.2164 16.1774C49.0969 15.9566 48.935 15.7839 48.7308 15.6604C48.5265 15.5369 48.2962 15.4757 48.0387 15.4757C47.4043 15.4757 46.9068 15.7489 46.5461 16.2954C46.1843 16.8419 46.004 17.5983 46.004 18.5656V23.788H42.9709V9.04004H46.004V14.7259C46.4624 14.1072 46.9491 13.6503 47.4641 13.3563C47.979 13.0623 48.5472 12.9158 49.1696 12.9158C50.2625 12.9158 51.0925 13.2918 51.6618 14.0438C52.2299 14.7958 52.5145 15.8888 52.5145 17.3228L52.5124 17.3239Z" fill="#404041"/>
<path d="M59.4509 12.917C61.0902 12.917 62.3678 13.4099 63.2847 14.3958C64.2016 15.3817 64.66 16.7458 64.66 18.4902C64.66 20.2347 64.2016 21.5987 63.2847 22.5846C62.3678 23.5705 61.0902 24.0624 59.4509 24.0624C57.8116 24.0624 56.5384 23.5694 55.6117 22.5846C54.6851 21.5987 54.2223 20.2336 54.2223 18.4902C54.2223 16.7469 54.6851 15.3817 55.6117 14.3958C56.5384 13.4099 57.817 12.917 59.4509 12.917ZM59.4509 15.3435C58.7785 15.3435 58.2668 15.6134 57.9159 16.1534C57.5639 16.6933 57.3879 17.4726 57.3879 18.4891C57.3879 19.5056 57.5639 20.2849 57.9159 20.8249C58.2679 21.3648 58.7796 21.6359 59.4509 21.6359C60.1223 21.6359 60.6231 21.3659 60.9718 20.8249C61.3206 20.2849 61.4944 19.5056 61.4944 18.4891C61.4944 17.4726 61.3206 16.6933 60.9718 16.1534C60.6231 15.6134 60.1158 15.3435 59.4509 15.3435Z" fill="#404041"/>
<path d="M75.3966 17.7318V23.7881H72.3352V22.2153C71.9267 22.8602 71.4683 23.3291 70.9599 23.6231C70.4515 23.9171 69.8322 24.0636 69.1044 24.0636C68.118 24.0636 67.3195 23.7433 66.7068 23.1017C66.0941 22.4601 65.7888 21.6284 65.7888 20.6042C65.7888 19.3593 66.1723 18.4466 66.9382 17.8651C67.7041 17.2837 68.9067 16.9929 70.546 16.9929H72.3352V16.7273C72.3352 16.1907 72.1451 15.7972 71.7649 15.5469C71.3846 15.2977 70.7958 15.1731 69.9985 15.1731C69.3456 15.1731 68.7394 15.2463 68.1799 15.3906C67.6204 15.5359 67.1001 15.7545 66.6166 16.0442V13.4571C67.2695 13.28 67.9246 13.1455 68.5808 13.0537C69.2369 12.9619 69.892 12.916 70.5449 12.916C72.2592 12.916 73.4965 13.2942 74.2559 14.0484C75.0163 14.8036 75.3955 16.0311 75.3955 17.7307L75.3966 17.7318ZM70.7622 19.0117C70.1277 19.0117 69.6508 19.1319 69.3303 19.3724C69.0099 19.6129 68.8502 19.9659 68.8502 20.4337C68.8502 20.8633 68.9784 21.1999 69.2358 21.4436C69.4933 21.6874 69.8518 21.8087 70.3102 21.8087C70.8817 21.8087 71.3618 21.5792 71.7518 21.1212C72.1418 20.6632 72.3363 20.0894 72.3363 19.4008V19.0128H70.7632L70.7622 19.0117Z" fill="#404041"/>
<path d="M77.7126 9.04004H80.7458V23.7869H77.7126V9.04004Z" fill="#404041"/>
<path d="M87.7799 12.917C89.4192 12.917 90.6968 13.4099 91.6137 14.3958C92.5306 15.3817 92.989 16.7458 92.989 18.4902C92.989 20.2347 92.5306 21.5987 91.6137 22.5846C90.6968 23.5705 89.4192 24.0624 87.7799 24.0624C86.1406 24.0624 84.8674 23.5694 83.9418 22.5846C83.0152 21.5987 82.5524 20.2336 82.5524 18.4902C82.5524 16.7469 83.0152 15.3817 83.9418 14.3958C84.8685 13.4099 86.1471 12.917 87.7799 12.917ZM87.7799 15.3435C87.1086 15.3435 86.5958 15.6134 86.2449 16.1534C85.8929 16.6933 85.7169 17.4726 85.7169 18.4891C85.7169 19.5056 85.8929 20.2849 86.2449 20.8249C86.5958 21.3648 87.1086 21.6359 87.7799 21.6359C88.4513 21.6359 88.9532 21.3659 89.3008 20.8249C89.6495 20.2849 89.8234 19.5056 89.8234 18.4891C89.8234 17.4726 89.6495 16.6933 89.3008 16.1534C88.9521 15.6134 88.4448 15.3435 87.7799 15.3435Z" fill="#404041"/>
<path d="M98.2295 10.1584V13.1719H101.357V15.5983H98.2295V20.1004C98.2295 20.5934 98.3154 20.9267 98.4881 21.1005C98.6608 21.2743 99.0074 21.3607 99.5288 21.3607H101.092V23.7871H98.4924C97.2931 23.7871 96.4425 23.5073 95.9406 22.9488C95.4376 22.3892 95.1866 21.4404 95.1866 20.1004V15.5983H93.6799V13.1719H95.1866V10.1584H98.2295Z" fill="#404041"/>
<path d="M106.69 10.1584V13.1719H109.818V15.5983H106.69V20.1004C106.69 20.5934 106.776 20.9267 106.949 21.1005C107.121 21.2743 107.468 21.3607 107.989 21.3607H109.553V23.7871H106.953C105.754 23.7871 104.903 23.5073 104.401 22.9488C103.898 22.3892 103.647 21.4404 103.647 20.1004V15.5983H102.14V13.1719H103.647V10.1584H106.69Z" fill="#404041"/>
<path d="M115.811 12.917C117.451 12.917 118.728 13.4099 119.645 14.3958C120.562 15.3817 121.02 16.7458 121.02 18.4902C121.02 20.2347 120.562 21.5987 119.645 22.5846C118.728 23.5705 117.451 24.0624 115.811 24.0624C114.172 24.0624 112.899 23.5694 111.972 22.5846C111.045 21.5987 110.583 20.2336 110.583 18.4902C110.583 16.7469 111.045 15.3817 111.972 14.3958C112.899 13.4099 114.177 12.917 115.811 12.917ZM115.811 15.3435C115.139 15.3435 114.627 15.6134 114.276 16.1534C113.924 16.6933 113.748 17.4726 113.748 18.4891C113.748 19.5056 113.924 20.2849 114.276 20.8249C114.628 21.3648 115.14 21.6359 115.811 21.6359C116.483 21.6359 116.983 21.3659 117.332 20.8249C117.681 20.2849 117.855 19.5056 117.855 18.4891C117.855 17.4726 117.681 16.6933 117.332 16.1534C116.983 15.6134 116.476 15.3435 115.811 15.3435Z" fill="#404041"/>
<path fill-rule="evenodd" clip-rule="evenodd" d="M51.9224 7.56467C85.6332 3.29102 110.524 5.90221 118.019 7.19852C111.256 2.90956 81.064 0.531184 51.9224 7.56467Z" fill="#6DCEF5"/>
<path fill-rule="evenodd" clip-rule="evenodd" d="M53.9551 5.41706C87.6659 -1.26448 111.884 2.255 120.241 4.79077C113.479 0.49963 83.504 -3.67565 53.9551 5.41706Z" fill="#0054A5"/>
</g>
<defs>
<clipPath id="clip0_3_1747">
<rect width="121.02" height="24.0625" fill="white"/>
</clipPath>
</defs>
</svg>
