<?xml version="1.0" encoding="utf-8"?>
<!-- Generator: Adobe Illustrator 23.0.6, SVG Export Plug-In . SVG Version: 6.00 Build 0)  -->
<svg version="1.1" id="Layer_1" xmlns="http://www.w3.org/2000/svg" xmlns:xlink="http://www.w3.org/1999/xlink" x="0px" y="0px"
	 viewBox="0 0 430 85" style="enable-background:new 0 0 430 85;" xml:space="preserve">
<style type="text/css">
	.st0{fill:#0061AA;}
</style>
<path d="M402.5,24.8c-5.5,0-11.1,1.8-15.6,4.9V3.4h-11.1v72.9h11.1v-4.1c4.5,3.2,10.1,4.9,15.6,4.9c14.8,0,26-11.3,26-26.2
	S417.4,24.8,402.5,24.8 M402.5,66.1c-7.5,0-15.6-5.8-15.6-15.1s8.1-15.1,15.6-15.1c8.6,0,14.9,6.3,14.9,15.1
	C417.5,59.8,411.2,66.1,402.5,66.1"/>
<path d="M251.1,26.2c-5,1.1-9.4,3.7-12.8,7.4v-8h-11.1v50.7h11.1v-24c0-7.1,3.8-11.3,8.9-14.3c1.8-1,4.1-1.7,6.3-1.9L251.1,26.2z"/>
<polygon points="308.8,25.6 301.2,56 291.1,25.6 284.6,25.6 274.7,56 266.8,25.6 255.8,25.6 268.7,76.3 280,76.3 287.9,51.1 
	296.1,76.3 307.7,76.3 320.2,25.6 "/>
<path d="M145.8,24.8c-3.7,0-7.2,0.9-10.3,2.6v-24h-11.1v72.9h11.1V45.8c0-4.8,3.8-9.9,10.3-9.9c5.7,0,9.7,4.1,9.7,9.9v30.5h11.1
	V45.8C166.7,33.8,157.7,24.8,145.8,24.8"/>
<path d="M98.7,44.6c-8.4-1.3-9.9-3.6-9.9-5.2c0-3.7,4.8-5.7,8.9-5.7c5.5,0,9.3,3.1,11.5,6l9.3-6.5c-4.4-5.7-12.3-9.2-20.8-9.2h0
	c-11.6,0-20,6.1-20.4,14.9c-0.4,8.6,6.2,14,19.6,16.1c7.2,1.1,10.5,2.9,11,5.4c0.4,2.5-2.1,6.3-10,6.3c-5.6,0-10.7-2.8-12.5-5.4
	l-9.7,5.9c4.7,7.1,14.5,9.7,22.2,9.7h0c7.3,0,13.4-2.1,17.1-6c3-3.1,4.4-7,4-11.5C118,47.1,103.9,45.4,98.7,44.6"/>
<path d="M182.6,45.4c2.2-5.5,7.6-9.5,14-9.5c6.3,0,11.7,3.9,14,9.5H182.6z M170.4,50.9c0,14.4,10.9,26.1,27.1,26.1
	c10,0,17.1-4.3,22.7-11.5l-8.5-5.7c-3.1,4.2-7.7,7.3-14.3,7.3c-8.2,0-13.8-5-14.8-10.6h39.5c0.4-1.8,0.6-3.7,0.6-5.6h0
	c0-14.4-11.7-26.1-26.1-26.1C182.1,24.8,170.4,36.5,170.4,50.9"/>
<path d="M331.4,45.4c2.2-5.5,7.6-9.5,14-9.5c6.3,0,11.7,3.9,14,9.5H331.4z M319.3,50.9c0,14.4,10.9,26.1,27.1,26.1
	c10,0,17.1-4.3,22.7-11.5l-8.5-5.7c-3.1,4.2-7.7,7.3-14.3,7.3c-8.2,0-13.8-5-14.8-10.6h39.5c0.4-1.8,0.6-3.7,0.6-5.6h0
	c0-14.4-11.7-26.1-26.1-26.1C331,24.8,319.3,36.5,319.3,50.9"/>
<path class="st0" d="M36.3,13.2c0,0-8.8,5.3-14,9.2c0,0,8.4,7,15.1,10.2c0,0,5.7,3,11.5,3c0,0,5.7,0.1,10.8-4.1
	c0,0-5.3-6.6-11.9-10.9C47.8,20.6,39.6,15.1,36.3,13.2"/>
<path class="st0" d="M70,47c0,0-5.3-8.8-9.1-14c0,0-7,8.4-10.2,15c0,0-3.1,5.7-3,11.4c0,0-0.1,5.6,4,10.8c0,0,6.6-5.3,10.9-11.8
	C62.6,58.5,68.1,50.3,70,47"/>
<path class="st0" d="M36.2,80.7c0,0,8.8-5.3,14-9.2c0,0-8.4-7-15.1-10.2c0,0-5.7-3-11.5-3c0,0-5.7-0.1-10.8,4.1
	c0,0,5.3,6.6,11.9,10.9C24.6,73.3,32.8,78.8,36.2,80.7"/>
<path class="st0" d="M2.4,46.9c0,0,5.2,8.8,9.1,14c0,0,7-8.4,10.3-15c0,0,3.1-5.7,3.1-11.4c0,0,0.1-5.6-4-10.8
	c0,0-6.6,5.3-10.9,11.8C9.8,35.4,4.3,43.6,2.4,46.9"/>
</svg>
