<?xml version="1.0" encoding="utf-8"?>
<!-- Generator: Adobe Illustrator 16.0.0, SVG Export Plug-In . SVG Version: 6.00 Build 0)  -->
<!DOCTYPE svg PUBLIC "-//W3C//DTD SVG 1.1//EN" "http://www.w3.org/Graphics/SVG/1.1/DTD/svg11.dtd">
<svg version="1.1" xmlns="http://www.w3.org/2000/svg" xmlns:xlink="http://www.w3.org/1999/xlink" x="0px" y="0px" width="203.7px"
	 height="169.893px" viewBox="0 0 203.7 169.893" enable-background="new 0 0 203.7 169.893" xml:space="preserve">
<g id="Calque_4">
</g>
<g id="BLOCS">
	<rect x="22.576" y="21.66" fill="#3FBDED" width="110.255" height="35.271"/>
	<rect x="22.576" y="61.674" fill="#3FBDED" width="125.891" height="35.272"/>
	<polygon fill="#1B7BC0" points="182.04,96.946 182.04,148.232 148.467,148.232 148.467,61.674 	"/>
</g>
<g id="FLEUR">
	<path fill-rule="evenodd" clip-rule="evenodd" fill="#FFFFFF" d="M165.264,110.247c-0.356,0.647-1.147,1.58-2.486,3.252
		c-1.546,1.922-1.271,4.495-0.533,6.013c0.84,1.756,1.321,3.207,1.706,4.589c0.526,2.008,0.183,4.688,0.22,4.445h-1.348
		c0-3.273-1.015-6.35-3.489-7.717c-3.505-1.943-6.962,1.426-5.861,4.924c0.576,1.84,1.608,2.455,1.902,2.455
		c0,0-0.479-2.024,0.986-3.055c1.365-0.973,3.069-0.385,3.854,0.779c0.748,1.098,0.868,2.613,0.868,2.613h-2.517v1.861l5.058-0.002
		c0,0-0.136,2.635-2.904,2.379c0,0,0.338,2.068,2.904,0.988c0,0-0.136,2.168,1.64,3.26l0,0l0,0c1.754-1.092,1.618-3.26,1.618-3.26
		c2.571,1.08,2.919-0.988,2.919-0.988c-2.783,0.256-2.919-2.379-2.919-2.379l5.075,0.002v-1.861h-2.534c0,0,0.131-1.516,0.868-2.613
		c0.793-1.164,2.491-1.752,3.871-0.779c1.451,1.03,0.993,3.055,0.993,3.055c0.281,0,1.307-0.615,1.879-2.455
		c1.101-3.498-2.362-6.867-5.861-4.924c-2.464,1.367-3.482,4.443-3.482,7.717h-1.333c0.032,0.242-0.324-2.438,0.215-4.445
		c0.368-1.382,0.86-2.833,1.698-4.589c0.729-1.518,1-4.091-0.541-6.013C166.407,111.827,165.602,110.895,165.264,110.247z"/>
</g>
<g id="TEXTE_OUTLINE">
	<g>
		<path fill="#FFFFFF" d="M40.612,50.045c-0.48,0-0.875-0.085-1.185-0.255s-0.56-0.39-0.75-0.66s-0.325-0.565-0.405-0.885
			c-0.08-0.32-0.12-0.63-0.12-0.93v-4.17c0-0.72-0.125-1.205-0.375-1.455c-0.25-0.25-0.625-0.375-1.125-0.375h-2.52v8.73h-3.54
			v-21.66h6.51c1.64,0,2.82,0.38,3.54,1.14c0.72,0.76,1.08,1.76,1.08,3v3.99c0,0.46-0.045,0.835-0.135,1.125s-0.2,0.525-0.33,0.705
			c-0.13,0.18-0.28,0.32-0.45,0.42c-0.17,0.1-0.326,0.19-0.465,0.27l-0.48,0.27c-0.1,0.06-0.2,0.116-0.3,0.165
			c-0.1,0.05-0.15,0.135-0.15,0.255c0,0.14,0.04,0.24,0.12,0.3c0.08,0.06,0.18,0.13,0.3,0.21l0.48,0.3
			c0.14,0.1,0.295,0.21,0.465,0.33c0.17,0.12,0.32,0.27,0.45,0.45c0.13,0.18,0.24,0.405,0.33,0.675
			c0.09,0.27,0.135,0.605,0.135,1.005v4.32h1.32v2.73H40.612z M38.122,32.705c0-0.76-0.4-1.14-1.2-1.14h-2.79v6.57h2.79
			c0.36,0,0.65-0.105,0.87-0.315c0.22-0.21,0.33-0.484,0.33-0.825V32.705z"/>
		<path fill="#FFFFFF" d="M47.062,50.045v-21.66h9.51v3.18h-5.97v5.64h4.29v3.15h-4.29v6.51h5.97v3.18H47.062z"/>
		<path fill="#FFFFFF" d="M68.211,50.045h-3.18l-4.86-21.06v-0.6h3.42l2.34,12.18l0.6,3.87h0.18l0.6-3.87l2.34-12.18h3.42v0.6
			L68.211,50.045z"/>
		<path fill="#FFFFFF" d="M76.581,50.045v-21.66h9.51v3.18h-5.97v5.64h4.29v3.15h-4.29v6.51h5.97v3.18H76.581z"/>
		<path fill="#FFFFFF" d="M100.28,50.045l-5.069-11.25l-1.44-3.96h-0.18l0.66,6.63v8.58h-3.51v-21.66h3.15l4.739,10.14l1.47,3.99
			h0.18l-0.359-6.36v-7.77h3.51v21.66H100.28z"/>
		<path fill="#FFFFFF" d="M119.181,45.365c0,0.641-0.104,1.26-0.314,1.86c-0.211,0.6-0.545,1.13-1.006,1.59
			c-0.459,0.46-1.049,0.83-1.77,1.11c-0.72,0.28-1.58,0.42-2.58,0.42c-0.939,0-1.766-0.14-2.475-0.42
			c-0.711-0.28-1.305-0.649-1.785-1.11c-0.48-0.46-0.846-0.99-1.096-1.59c-0.25-0.6-0.375-1.22-0.375-1.86v-16.98h3.601v16.8
			c0,0.74,0.215,1.255,0.646,1.545c0.43,0.29,0.924,0.435,1.484,0.435c0.52,0,0.995-0.145,1.426-0.435
			c0.43-0.29,0.645-0.805,0.645-1.545v-16.8h3.6V45.365z"/>
	</g>
	<g>
		<path fill="#FFFFFF" d="M56.46,69.61c-0.45-0.459-1.04-0.83-1.77-1.11c-0.73-0.28-1.605-0.42-2.625-0.42s-1.895,0.14-2.625,0.42
			c-0.73,0.28-1.32,0.65-1.77,1.11c-0.45,0.46-0.78,0.99-0.99,1.59c-0.21,0.6-0.315,1.22-0.315,1.86v12.3
			c0,0.54,0.075,1.071,0.225,1.59s0.385,0.995,0.705,1.425c0.32,0.431,0.735,0.806,1.245,1.125c0.51,0.32,1.125,0.55,1.845,0.69
			v0.51c0,1.32,0.37,2.38,1.11,3.18s1.9,1.2,3.48,1.2c0.36,0,0.76-0.05,1.2-0.149c0.44-0.102,0.8-0.261,1.08-0.48v-2.7l-0.18-0.12
			c-0.6,0.221-1.22,0.33-1.86,0.33c-0.48,0-0.845-0.12-1.095-0.359c-0.25-0.24-0.375-0.541-0.375-0.9v-0.51
			c0.72-0.141,1.335-0.37,1.845-0.69c0.51-0.319,0.925-0.694,1.245-1.125c0.319-0.43,0.555-0.905,0.705-1.425
			c0.15-0.52,0.225-1.05,0.225-1.59v-12.3c0-0.64-0.105-1.26-0.315-1.86C57.24,70.6,56.91,70.07,56.46,69.61z M54.165,85.18
			c0,0.72-0.161,1.23-0.48,1.53c-0.32,0.301-0.86,0.45-1.62,0.45c-0.76,0-1.3-0.149-1.62-0.45c-0.32-0.3-0.48-0.81-0.48-1.53V73.24
			c0-0.72,0.16-1.23,0.48-1.53c0.32-0.3,0.86-0.45,1.62-0.45c0.76,0,1.3,0.15,1.62,0.45c0.319,0.3,0.48,0.81,0.48,1.53V85.18z"/>
		<path fill="#FFFFFF" d="M70.383,85.18c0,0.74-0.215,1.255-0.645,1.545c-0.43,0.289-0.905,0.435-1.425,0.435
			c-0.56,0-1.055-0.146-1.485-0.435c-0.43-0.29-0.645-0.805-0.645-1.545v-16.8h-3.6v16.98c0,0.641,0.125,1.26,0.375,1.86
			s0.615,1.131,1.095,1.59c0.48,0.461,1.075,0.83,1.785,1.11c0.709,0.28,1.535,0.42,2.475,0.42c1,0,1.86-0.14,2.58-0.42
			c0.72-0.28,1.31-0.649,1.77-1.11c0.46-0.459,0.795-0.99,1.005-1.59c0.21-0.6,0.315-1.219,0.315-1.86V68.38h-3.6V85.18z"/>
		<polygon fill="#FFFFFF" points="80.762,66.4 82.652,66.4 87.303,62.77 87.303,61.674 83.843,61.674 80.762,65.56 		"/>
		<polygon fill="#FFFFFF" points="78.633,90.04 88.143,90.04 88.143,86.86 82.172,86.86 82.172,80.35 86.463,80.35 86.463,77.2 
			82.172,77.2 82.172,71.56 88.143,71.56 88.143,68.38 78.633,68.38 		"/>
		<path fill="#FFFFFF" d="M103.173,79.36l-0.66-0.36c-0.101-0.06-0.2-0.13-0.3-0.21c-0.101-0.08-0.15-0.18-0.15-0.3
			c0-0.12,0.045-0.215,0.135-0.285c0.091-0.07,0.185-0.135,0.285-0.195l0.42-0.3c0.22-0.16,0.436-0.37,0.646-0.63
			c0.21-0.26,0.314-0.68,0.314-1.26V72.4c0-0.74-0.125-1.37-0.375-1.89s-0.59-0.935-1.02-1.245c-0.431-0.31-0.936-0.535-1.516-0.675
			c-0.58-0.14-1.199-0.21-1.859-0.21h-6.36v21.66h6.63c1.16,0,2.085-0.145,2.775-0.436c0.689-0.289,1.22-0.66,1.59-1.109
			c0.37-0.45,0.615-0.949,0.735-1.5c0.12-0.55,0.18-1.085,0.18-1.605v-3.36c0-0.84-0.16-1.45-0.479-1.83
			C103.843,79.82,103.513,79.54,103.173,79.36z M96.272,71.56h2.641c0.479,0,0.824,0.11,1.034,0.33c0.21,0.22,0.315,0.53,0.315,0.93
			v3.03c0,0.42-0.125,0.74-0.375,0.96c-0.25,0.22-0.575,0.33-0.975,0.33h-2.641V71.56z M101.043,85.27
			c0,0.521-0.12,0.915-0.36,1.185s-0.74,0.405-1.5,0.405h-2.91v-6.57h2.91c0.8,0,1.31,0.146,1.53,0.435
			c0.22,0.29,0.33,0.685,0.33,1.185V85.27z"/>
		<polygon fill="#FFFFFF" points="109.352,90.04 118.861,90.04 118.861,86.86 112.892,86.86 112.892,80.35 117.182,80.35 
			117.182,77.2 112.892,77.2 112.892,71.56 118.861,71.56 118.861,68.38 109.352,68.38 		"/>
		<path fill="#FFFFFF" d="M130.771,75.4c-0.02,0.28-0.045,0.565-0.075,0.855c-0.029,0.291-0.055,0.555-0.074,0.795l0.119,0.18h3.15
			c0.1-0.58,0.185-1.21,0.255-1.89c0.07-0.68,0.105-1.29,0.105-1.83c0-0.42-0.061-0.935-0.181-1.545
			c-0.12-0.61-0.365-1.205-0.734-1.785c-0.37-0.58-0.91-1.075-1.62-1.485c-0.71-0.41-1.655-0.615-2.835-0.615
			c-0.801,0-1.54,0.11-2.22,0.33c-0.681,0.22-1.266,0.555-1.756,1.005s-0.875,1.02-1.154,1.71c-0.28,0.69-0.42,1.505-0.42,2.445
			v11.28c0,0.94,0.14,1.754,0.42,2.445c0.279,0.69,0.664,1.261,1.154,1.71c0.49,0.45,1.075,0.785,1.756,1.006
			c0.68,0.219,1.419,0.329,2.22,0.329c1.14,0,2.06-0.2,2.76-0.6s1.245-0.896,1.635-1.485c0.391-0.59,0.65-1.22,0.78-1.89
			s0.195-1.275,0.195-1.815c0-0.84-0.041-1.555-0.12-2.145c-0.08-0.59-0.16-1.055-0.24-1.395h-3.15l-0.119,0.18
			c0.06,0.46,0.109,0.925,0.149,1.395c0.04,0.47,0.061,0.875,0.061,1.215c0,0.48-0.021,0.926-0.061,1.335
			c-0.04,0.41-0.13,0.765-0.27,1.065c-0.141,0.3-0.341,0.535-0.601,0.705s-0.6,0.255-1.02,0.255c-0.28,0-0.535-0.03-0.766-0.091
			c-0.229-0.059-0.435-0.174-0.614-0.344c-0.181-0.17-0.32-0.41-0.42-0.721c-0.101-0.31-0.15-0.715-0.15-1.215V73.66
			c0-0.5,0.05-0.905,0.15-1.215c0.1-0.31,0.239-0.555,0.42-0.735c0.18-0.18,0.385-0.3,0.614-0.36c0.23-0.06,0.485-0.09,0.766-0.09
			c0.76,0,1.274,0.24,1.545,0.72c0.27,0.48,0.405,1.14,0.405,1.98c0,0.18-0.006,0.395-0.016,0.645
			C130.807,74.855,130.791,75.12,130.771,75.4z"/>
	</g>
</g>
</svg>
