<?xml version="1.0" standalone="no"?>
<!DOCTYPE svg PUBLIC "-//W3C//DTD SVG 20010904//EN"
 "http://www.w3.org/TR/2001/REC-SVG-20010904/DTD/svg10.dtd">
<svg version="1.0" xmlns="http://www.w3.org/2000/svg"
 width="507.000000pt" height="507.000000pt" viewBox="0 0 507.000000 507.000000"
 preserveAspectRatio="xMidYMid meet">
<metadata>
Created by potrace 1.14, written by Peter Selinger 2001-2017
</metadata>
<g transform="translate(0.000000,507.000000) scale(0.100000,-0.100000)"
fill="#000000" stroke="none">
<path d="M2168 4775 c-2 -1 -27 -6 -57 -9 -53 -6 -152 -34 -161 -46 -3 -3 -24
-14 -48 -24 -23 -11 -47 -25 -53 -33 -6 -7 -17 -13 -25 -13 -7 0 -32 -13 -56
-29 -87 -58 -126 -77 -183 -86 -11 -2 -20 -4 -20 -5 0 -1 -8 -3 -18 -5 -56
-11 -117 -30 -117 -37 0 -4 -11 -8 -24 -8 -14 0 -27 -4 -30 -9 -4 -5 -26 -19
-51 -31 -24 -12 -58 -34 -75 -50 -16 -15 -30 -26 -30 -24 0 4 -26 -23 -125
-127 -8 -9 -15 -21 -15 -27 0 -7 -3 -12 -8 -12 -4 0 -16 -20 -27 -45 -11 -25
-23 -45 -27 -45 -5 0 -8 -4 -8 -9 0 -5 -16 -35 -35 -66 -19 -32 -32 -61 -30
-66 3 -4 2 -10 -3 -13 -4 -2 -9 -22 -10 -44 -2 -22 -12 -58 -22 -80 -11 -23
-21 -49 -23 -59 -2 -10 -10 -34 -19 -53 -10 -25 -12 -37 -4 -42 7 -5 7 -8 1
-8 -13 0 -49 -130 -58 -206 -2 -17 -7 -36 -11 -42 -4 -7 -3 -12 3 -12 6 0 6
-11 1 -29 -4 -16 -6 -32 -3 -34 4 -4 12 -96 15 -167 0 -8 5 -20 10 -27 5 -7 5
-14 -2 -18 -6 -3 -7 -11 -4 -17 4 -6 9 -32 11 -57 7 -67 11 -96 13 -96 1 0 3
-18 6 -40 2 -22 7 -51 10 -65 4 -14 8 -38 10 -55 1 -16 7 -43 11 -60 8 -25 6
-33 -12 -47 -12 -9 -27 -35 -34 -57 -6 -22 -19 -46 -29 -53 -37 -28 -53 -67
-52 -131 1 -71 4 -105 13 -127 3 -8 11 -33 17 -55 6 -22 14 -47 17 -55 4 -8 7
-17 8 -20 6 -18 19 -50 33 -85 10 -22 16 -43 14 -47 -1 -5 2 -8 8 -8 5 0 10
-6 10 -13 0 -15 109 -236 110 -223 0 6 6 2 12 -7 16 -20 76 -28 100 -13 23 14
54 -4 50 -28 -2 -9 3 -16 9 -16 7 0 10 -3 6 -6 -3 -4 1 -21 10 -38 9 -17 18
-35 19 -41 3 -20 46 -85 56 -85 5 0 7 -4 4 -8 -3 -5 4 -19 15 -30 11 -12 17
-22 13 -22 -4 0 7 -13 24 -30 18 -16 29 -30 27 -30 -10 0 103 -102 157 -141
29 -21 58 -42 63 -47 6 -4 26 -16 45 -25 19 -10 49 -26 67 -37 17 -10 40 -20
50 -22 10 -2 20 -6 23 -9 19 -21 203 -77 275 -84 75 -7 262 -4 285 5 6 3 9 3
78 14 28 4 52 11 52 16 0 4 11 6 25 5 14 -2 27 1 31 6 3 5 14 9 25 9 10 0 19
4 19 9 0 6 9 8 20 6 11 -2 20 1 20 6 0 6 4 8 9 4 5 -3 12 -1 16 5 4 6 11 8 16
5 5 -4 9 -2 9 3 0 4 16 15 35 22 20 8 41 20 47 27 5 7 14 10 19 7 5 -3 9 0 9
7 0 7 3 10 6 6 7 -7 144 85 219 147 70 58 163 154 170 177 4 10 11 19 16 19 5
0 9 7 9 15 0 9 7 18 15 21 8 4 12 10 9 15 -3 5 0 9 7 9 7 0 10 3 6 6 -3 3 3
15 13 27 11 11 17 25 13 30 -3 6 -2 7 4 4 7 -4 72 114 78 143 0 3 8 22 18 43
9 20 25 54 34 75 10 20 18 39 18 42 5 22 41 81 54 86 9 4 51 8 93 8 72 1 78 3
101 30 20 23 64 130 73 179 1 4 2 8 4 10 2 2 5 16 13 57 3 14 8 36 11 50 4 14
9 39 11 55 2 17 4 30 5 30 10 0 18 215 9 221 -5 2 -6 11 -3 18 7 18 -34 124
-57 147 -11 11 -16 19 -11 19 26 0 -61 33 -93 35 -34 2 -46 -3 -82 -36 -45
-41 -59 -47 -60 -26 -1 50 -19 242 -23 242 -1 0 -3 18 -4 40 -2 22 -6 54 -9
70 -4 17 -9 46 -12 65 -3 19 -8 46 -10 60 -3 14 -7 36 -10 50 -3 14 -7 36 -10
50 -10 48 -15 70 -19 89 -3 11 -9 28 -15 39 -6 11 -8 22 -5 25 3 3 -2 19 -10
36 -9 17 -16 33 -16 36 0 11 -35 80 -43 83 -4 2 -5 7 -2 12 3 4 -2 13 -10 20
-8 7 -15 19 -15 26 0 8 -4 14 -10 14 -5 0 -10 5 -10 10 0 12 -70 122 -85 132
-5 4 -6 8 -1 8 5 0 2 8 -7 18 -10 10 -14 22 -10 25 3 4 1 7 -5 7 -7 0 -12 7
-12 15 0 8 -4 15 -10 15 -5 0 -7 7 -4 15 4 8 2 15 -3 15 -6 0 -9 14 -8 31 2
31 45 79 72 79 7 0 13 5 13 12 0 6 3 9 6 5 8 -7 44 24 44 39 0 6 -20 28 -46
50 -25 21 -51 44 -58 51 -8 7 -16 9 -20 6 -3 -3 -8 2 -12 11 -3 9 -12 16 -19
16 -6 0 -25 11 -40 24 -16 14 -32 23 -37 20 -4 -3 -8 -1 -8 4 0 10 -63 44 -89
48 -7 2 -18 7 -24 13 -6 6 -19 11 -29 11 -10 0 -18 3 -18 8 0 4 -16 8 -36 10
-20 1 -41 5 -48 9 -6 4 -20 8 -31 9 -11 1 -47 4 -80 8 -33 4 -94 9 -135 11
-85 5 -124 20 -114 44 3 9 7 21 8 26 1 6 5 16 9 23 11 17 0 49 -21 57 -17 7
-158 16 -164 10z"/>
<path d="M4160 2360 c-115 -21 -238 -159 -256 -288 -10 -68 -10 -77 0 -91 8
-11 8 -13 -1 -8 -12 8 -12 -51 1 -72 4 -6 2 -11 -4 -11 -6 0 -9 -4 -6 -8 7
-12 9 -83 2 -111 -13 -58 -82 -114 -143 -115 -18 -1 -33 -5 -33 -11 0 -5 -5
-4 -12 3 -7 7 -22 12 -33 12 -12 0 -25 3 -29 7 -9 10 -154 39 -188 38 -16 -1
-28 2 -28 5 0 10 -95 6 -102 -5 -5 -7 -8 -6 -8 2 0 12 -37 7 -56 -8 -6 -5 -14
-6 -17 -2 -4 3 -7 0 -7 -7 0 -7 -3 -11 -6 -7 -8 7 -46 -39 -61 -73 -10 -24
-10 -67 0 -113 2 -11 15 -34 30 -52 31 -40 33 -45 10 -45 -9 0 -31 -12 -50
-26 -34 -26 -51 -55 -59 -104 -3 -14 -7 -31 -9 -37 -2 -7 -1 -13 3 -13 4 0 16
-18 26 -40 11 -22 25 -40 31 -40 21 0 33 -24 24 -45 -4 -11 -8 -16 -8 -11 -1
11 -35 -33 -46 -59 -12 -31 -16 -67 -10 -100 5 -29 14 -41 77 -100 l28 -26
-20 -27 c-40 -54 -33 -144 13 -184 23 -20 125 -70 167 -82 14 -4 34 -11 45
-16 25 -11 78 -24 88 -22 4 1 7 -1 7 -5 0 -11 54 -15 200 -15 104 0 195 5 195
12 0 3 51 10 73 10 12 0 22 4 22 8 0 4 11 8 25 8 14 1 33 5 43 9 9 4 24 9 32
10 23 3 99 36 150 63 73 40 172 125 208 178 39 59 57 90 54 97 -1 4 3 7 8 7 6
0 10 9 10 20 0 11 5 20 12 20 6 0 9 3 5 6 -3 3 -1 18 4 33 21 53 28 173 16
253 -9 57 -29 118 -39 118 -5 0 -7 4 -4 8 3 5 -19 49 -49 98 -30 49 -60 100
-67 114 -7 14 -21 34 -30 44 -10 11 -18 24 -18 28 0 5 -9 18 -20 30 -10 12
-17 25 -14 29 2 4 -1 11 -7 15 -6 3 -22 32 -36 63 -35 78 -37 168 -6 258 13
37 25 73 27 78 1 6 16 37 31 69 54 113 43 171 -39 206 -52 22 -99 28 -146 20z"/>
</g>
</svg>
